<?xml version="1.0" encoding="utf-8"?>
<!-- Generator: Adobe Illustrator 18.1.1, SVG Export Plug-In . SVG Version: 6.00 Build 0)  -->
<!DOCTYPE svg PUBLIC "-//W3C//DTD SVG 1.1//EN" "http://www.w3.org/Graphics/SVG/1.1/DTD/svg11.dtd">
<svg version="1.1" id="Layer_1" xmlns="http://www.w3.org/2000/svg" xmlns:xlink="http://www.w3.org/1999/xlink" x="0px" y="0px"
	 viewBox="0 341.9 167 34.8" enable-background="new 0 341.9 167 34.8" xml:space="preserve">
<g>
	<g>
		<g>
			<path fill="#FFFFFF" d="M58.2,368l-1.1-3h-7.5l-1.1,3h-4.2l6.7-17.4h4.6l6.7,17.4H58.2z M53.4,354.3l-2.7,7.5h5.4L53.4,354.3z"/>
			<path fill="#FFFFFF" d="M70.1,359.3c0-5.5,4.2-9,9.3-9c3.6,0,5.9,1.8,7.2,3.9l-3.1,1.7c-0.8-1.2-2.3-2.3-4.1-2.3
				c-3.2,0-5.5,2.4-5.5,5.7c0,3.3,2.3,5.7,5.5,5.7c1.5,0,3-0.7,3.7-1.3v-2.1h-4.6v-3.2h8.3v6.7c-1.8,2-4.3,3.3-7.4,3.3
				C74.3,368.3,70.1,364.8,70.1,359.3z"/>
			<path fill="#FFFFFF" d="M97.6,368v-17.4h12.3v3.3h-8.6v3.7h8.4v3.3h-8.4v4h8.6v3.3L97.6,368L97.6,368z"/>
			<path fill="#FFFFFF" d="M135.8,368v-12.6l-4.9,12.6h-1.6l-4.9-12.6V368h-3.7v-17.4h5.2l4.2,10.9l4.2-10.9h5.2V368
				C139.6,368,135.8,368,135.8,368z"/>
			<path fill="#FFFFFF" d="M162.8,368l-1.1-3h-7.5l-1.1,3H149l6.7-17.4h4.6L167,368H162.8z M158,354.3l-2.7,7.5h5.4L158,354.3z"/>
		</g>
	</g>
	<g>
		<path fill="#FFFFFF" d="M32.3,344.4v29.8H2.5v-29.8H32.3 M34.8,341.9H0v34.8h34.8V341.9L34.8,341.9z"/>
		<polygon fill="#FFFFFF" points="17.4,368 8.7,359.3 17.4,359.3 		"/>
		<polygon fill="#FFFFFF" points="26.1,368 21.8,363.7 21.8,363.7 21.8,355 21.8,355 13.1,355 8.7,350.6 26.1,350.6 		"/>
	</g>
</g>
</svg>
